<?xml version="1.0" encoding="utf-8"?>
<!-- Generator: Adobe Illustrator 26.1.0, SVG Export Plug-In . SVG Version: 6.00 Build 0)  -->
<svg version="1.1" id="Layer_1" xmlns:v="https://vecta.io/nano"
	 xmlns="http://www.w3.org/2000/svg" xmlns:xlink="http://www.w3.org/1999/xlink" x="0px" y="0px" viewBox="0 0 79 37"
	 style="enable-background:new 0 0 79 37;" xml:space="preserve">
<style type="text/css">
	.st0{fill:#FA0060;}
</style>
<g>
	<g>
		<path class="st0" d="M0.8,8.1c0-2,1.6-3.6,3.7-3.6S8,6,8,8.1c0,2.1-1.6,3.7-3.6,3.7C2.3,11.7,0.8,10.2,0.8,8.1z M1.3,32.3V12.5
			h6.3v19.8L1.3,32.3L1.3,32.3z"/>
	</g>
	<g>
		<path class="st0" d="M31,21.9c0,6-4.2,10.4-9.8,10.4c-2.5,0-4.3-1-5.6-2.3v2.3H9.6V4.5h6.3v9.1c1.3-1.2,3-2,5.3-2
			C26.8,11.6,31,15.9,31,21.9z M24.6,21.9c0-2.5-1.9-4.6-4.5-4.6c-2.6,0-4.5,2.1-4.5,4.6c0,2.6,1.9,4.6,4.5,4.6
			C22.7,26.5,24.6,24.5,24.6,21.9z"/>
	</g>
	<g>
		<path class="st0" d="M52.1,23.9H37.9c0.6,1.9,2.2,3.1,4.9,3.1c2.1,0,4.5-0.8,6-1.8l2.5,4.3c-2,1.4-5,2.7-8.8,2.7
			c-7.4,0-11-4.9-11-10.4c0-5.9,4.2-10.4,10.6-10.4c5.7,0,10.2,3.6,10.2,9.9C52.3,22.2,52.2,23.1,52.1,23.9z M37.9,19.6h8.4
			c-0.5-1.9-2-3.1-4.1-3.1C40.1,16.5,38.5,17.6,37.9,19.6z"/>
	</g>
	<g>
		<path class="st0" d="M64.3,32.3l-3.2-6.1l-3.4,6.1h-7.6l6.5-10.5L51,11.5h7.6l2.7,5.6l3.2-5.6h7.3l-6.1,10.3l6.3,10.4L64.3,32.3
			L64.3,32.3z"/>
	</g>
	<circle class="st0" cx="74.8" cy="29.1" r="3.4"/>
</g>
</svg>
